<mxfile host="app.diagrams.net" modified="2022-10-24T13:20:53.804Z" agent="5.0 (Windows NT 10.0; Win64; x64) AppleWebKit/537.36 (KHTML, like Gecko) Chrome/104.0.5112.124 YaBrowser/22.9.3.886 Yowser/2.5 Safari/537.36" etag="rF2GnMa8qEPFhQyYK8dL" version="20.4.1" type="github">
  <diagram id="kgpKYQtTHZ0yAKxKKP6v" name="Page-1">
    <mxGraphModel dx="945" dy="685" grid="1" gridSize="10" guides="1" tooltips="1" connect="1" arrows="1" fold="1" page="1" pageScale="1" pageWidth="850" pageHeight="1100" math="0" shadow="0">
      <root>
        <mxCell id="0" />
        <mxCell id="1" parent="0" />
        <mxCell id="3nuBFxr9cyL0pnOWT2aG-1" value="Пользователь" style="shape=umlLifeline;perimeter=lifelinePerimeter;container=1;collapsible=0;recursiveResize=0;rounded=0;shadow=0;strokeWidth=1;" parent="1" vertex="1">
          <mxGeometry x="120" y="80" width="100" height="400" as="geometry" />
        </mxCell>
        <mxCell id="3nuBFxr9cyL0pnOWT2aG-2" value="" style="points=[];perimeter=orthogonalPerimeter;rounded=0;shadow=0;strokeWidth=1;" parent="3nuBFxr9cyL0pnOWT2aG-1" vertex="1">
          <mxGeometry x="45" y="70" width="10" height="330" as="geometry" />
        </mxCell>
        <mxCell id="3nuBFxr9cyL0pnOWT2aG-3" value="Открыть &#xa;приложение" style="verticalAlign=bottom;startArrow=oval;endArrow=block;startSize=8;shadow=0;strokeWidth=1;fontSize=10;" parent="3nuBFxr9cyL0pnOWT2aG-1" target="3nuBFxr9cyL0pnOWT2aG-2" edge="1">
          <mxGeometry x="-0.1667" relative="1" as="geometry">
            <mxPoint x="-15" y="70" as="sourcePoint" />
            <mxPoint as="offset" />
          </mxGeometry>
        </mxCell>
        <mxCell id="3nuBFxr9cyL0pnOWT2aG-5" value="Приложение" style="shape=umlLifeline;perimeter=lifelinePerimeter;container=1;collapsible=0;recursiveResize=0;rounded=0;shadow=0;strokeWidth=1;" parent="1" vertex="1">
          <mxGeometry x="300" y="80" width="100" height="520" as="geometry" />
        </mxCell>
        <mxCell id="3nuBFxr9cyL0pnOWT2aG-6" value="" style="points=[];perimeter=orthogonalPerimeter;rounded=0;shadow=0;strokeWidth=1;" parent="3nuBFxr9cyL0pnOWT2aG-5" vertex="1">
          <mxGeometry x="45" y="80" width="10" height="160" as="geometry" />
        </mxCell>
        <mxCell id="jcawZlttsGuWC--Ivyhk-12" value="Уточнить наличие" style="verticalAlign=bottom;endArrow=block;shadow=0;strokeWidth=1;fontSize=8;" edge="1" parent="3nuBFxr9cyL0pnOWT2aG-5">
          <mxGeometry relative="1" as="geometry">
            <mxPoint x="55" y="89.80000000000011" as="sourcePoint" />
            <mxPoint x="170" y="89.8" as="targetPoint" />
          </mxGeometry>
        </mxCell>
        <mxCell id="jcawZlttsGuWC--Ivyhk-14" value="Сообщить о наличие товаров" style="verticalAlign=bottom;endArrow=open;dashed=1;endSize=8;exitX=-0.16;exitY=0.98;shadow=0;strokeWidth=1;exitDx=0;exitDy=0;exitPerimeter=0;fontSize=5;" edge="1" parent="3nuBFxr9cyL0pnOWT2aG-5" source="jcawZlttsGuWC--Ivyhk-11">
          <mxGeometry relative="1" as="geometry">
            <mxPoint x="55" y="100" as="targetPoint" />
            <mxPoint x="180" y="99.99999999999977" as="sourcePoint" />
          </mxGeometry>
        </mxCell>
        <mxCell id="jcawZlttsGuWC--Ivyhk-9" value="Вывести общую стоимость" style="verticalAlign=bottom;endArrow=open;dashed=1;endSize=8;exitX=0;exitY=0.95;shadow=0;strokeWidth=1;fontSize=6;" edge="1" parent="3nuBFxr9cyL0pnOWT2aG-5">
          <mxGeometry relative="1" as="geometry">
            <mxPoint x="-120" y="180" as="targetPoint" />
            <mxPoint x="40" y="179.99999999999977" as="sourcePoint" />
            <Array as="points">
              <mxPoint x="-40" y="180" />
            </Array>
          </mxGeometry>
        </mxCell>
        <mxCell id="jcawZlttsGuWC--Ivyhk-47" value="Заказ доставляется" style="verticalAlign=bottom;endArrow=open;dashed=1;endSize=8;exitX=-0.089;exitY=0.556;shadow=0;strokeWidth=1;fontSize=6;exitDx=0;exitDy=0;exitPerimeter=0;" edge="1" parent="3nuBFxr9cyL0pnOWT2aG-5">
          <mxGeometry x="0.0229" relative="1" as="geometry">
            <mxPoint x="-120" y="341" as="targetPoint" />
            <mxPoint x="169.2199999999999" y="341.04000000000013" as="sourcePoint" />
            <Array as="points" />
            <mxPoint as="offset" />
          </mxGeometry>
        </mxCell>
        <mxCell id="jcawZlttsGuWC--Ivyhk-50" value="" style="points=[];perimeter=orthogonalPerimeter;rounded=0;shadow=0;strokeWidth=1;" vertex="1" parent="3nuBFxr9cyL0pnOWT2aG-5">
          <mxGeometry x="45" y="390" width="10" height="30" as="geometry" />
        </mxCell>
        <mxCell id="3nuBFxr9cyL0pnOWT2aG-8" value="Выбрал еду" style="verticalAlign=bottom;endArrow=block;entryX=0;entryY=0;shadow=0;strokeWidth=1;fontSize=8;" parent="1" target="3nuBFxr9cyL0pnOWT2aG-6" edge="1">
          <mxGeometry relative="1" as="geometry">
            <mxPoint x="180" y="160" as="sourcePoint" />
          </mxGeometry>
        </mxCell>
        <mxCell id="jcawZlttsGuWC--Ivyhk-1" value="Работник &#xa;заведения" style="shape=umlLifeline;perimeter=lifelinePerimeter;container=1;collapsible=0;recursiveResize=0;rounded=0;shadow=0;strokeWidth=1;" vertex="1" parent="1">
          <mxGeometry x="550" y="80" width="100" height="490" as="geometry" />
        </mxCell>
        <mxCell id="jcawZlttsGuWC--Ivyhk-2" value="" style="points=[];perimeter=orthogonalPerimeter;rounded=0;shadow=0;strokeWidth=1;" vertex="1" parent="jcawZlttsGuWC--Ivyhk-1">
          <mxGeometry x="45" y="250" width="10" height="20" as="geometry" />
        </mxCell>
        <mxCell id="jcawZlttsGuWC--Ivyhk-28" value="Сообщить заказ" style="verticalAlign=bottom;endArrow=block;shadow=0;strokeWidth=1;fontSize=7;" edge="1" parent="jcawZlttsGuWC--Ivyhk-1">
          <mxGeometry x="-0.0435" relative="1" as="geometry">
            <mxPoint x="-70" y="249.71000000000015" as="sourcePoint" />
            <mxPoint x="45" y="249.90999999999997" as="targetPoint" />
            <mxPoint as="offset" />
          </mxGeometry>
        </mxCell>
        <mxCell id="jcawZlttsGuWC--Ivyhk-29" value="Заказ собран" style="verticalAlign=bottom;endArrow=open;dashed=1;endSize=8;exitX=-0.089;exitY=0.556;shadow=0;strokeWidth=1;fontSize=6;exitDx=0;exitDy=0;exitPerimeter=0;entryX=0.989;entryY=0.881;entryDx=0;entryDy=0;entryPerimeter=0;" edge="1" parent="jcawZlttsGuWC--Ivyhk-1">
          <mxGeometry relative="1" as="geometry">
            <mxPoint x="-69.22000000000003" y="269.84000000000003" as="targetPoint" />
            <mxPoint x="44.999999999999886" y="270.0000000000001" as="sourcePoint" />
            <Array as="points">
              <mxPoint x="-38.639999999999986" y="268.96" />
            </Array>
          </mxGeometry>
        </mxCell>
        <mxCell id="jcawZlttsGuWC--Ivyhk-30" value="Сообщить заведение, где забрать заказ" style="verticalAlign=bottom;endArrow=block;shadow=0;strokeWidth=1;fontSize=7;entryX=0.056;entryY=0.003;entryDx=0;entryDy=0;entryPerimeter=0;" edge="1" parent="jcawZlttsGuWC--Ivyhk-1">
          <mxGeometry x="-0.0435" relative="1" as="geometry">
            <mxPoint x="-71" y="290.00000000000017" as="sourcePoint" />
            <mxPoint x="184.55999999999995" y="290.06000000000006" as="targetPoint" />
            <mxPoint as="offset" />
          </mxGeometry>
        </mxCell>
        <mxCell id="jcawZlttsGuWC--Ivyhk-32" value="" style="points=[];perimeter=orthogonalPerimeter;rounded=0;shadow=0;strokeWidth=1;" vertex="1" parent="jcawZlttsGuWC--Ivyhk-1">
          <mxGeometry x="45" y="320" width="10" height="10" as="geometry" />
        </mxCell>
        <mxCell id="jcawZlttsGuWC--Ivyhk-35" value="Заказ принят" style="verticalAlign=bottom;endArrow=open;dashed=1;endSize=8;exitX=-0.089;exitY=0.556;shadow=0;strokeWidth=1;fontSize=6;exitDx=0;exitDy=0;exitPerimeter=0;entryX=1.063;entryY=0.431;entryDx=0;entryDy=0;entryPerimeter=0;" edge="1" parent="jcawZlttsGuWC--Ivyhk-1">
          <mxGeometry x="-0.1744" y="1" relative="1" as="geometry">
            <mxPoint x="-70.00000000000011" y="340.00000000000006" as="targetPoint" />
            <mxPoint x="184.37" y="341.04000000000013" as="sourcePoint" />
            <Array as="points">
              <mxPoint x="139.37" y="341.04" />
              <mxPoint x="100.73000000000002" y="340" />
            </Array>
            <mxPoint as="offset" />
          </mxGeometry>
        </mxCell>
        <mxCell id="jcawZlttsGuWC--Ivyhk-49" value="Отдать заказ" style="verticalAlign=bottom;endArrow=open;dashed=1;endSize=8;exitX=-0.089;exitY=0.556;shadow=0;strokeWidth=1;fontSize=6;exitDx=0;exitDy=0;exitPerimeter=0;" edge="1" parent="jcawZlttsGuWC--Ivyhk-1">
          <mxGeometry x="-0.1744" y="1" relative="1" as="geometry">
            <mxPoint x="-370" y="370" as="targetPoint" />
            <mxPoint x="184.3699999999999" y="371.0400000000002" as="sourcePoint" />
            <Array as="points">
              <mxPoint x="139.37" y="371.04" />
              <mxPoint x="100.73000000000002" y="370" />
            </Array>
            <mxPoint as="offset" />
          </mxGeometry>
        </mxCell>
        <mxCell id="jcawZlttsGuWC--Ivyhk-3" value="Курьер" style="shape=umlLifeline;perimeter=lifelinePerimeter;container=1;collapsible=0;recursiveResize=0;rounded=0;shadow=0;strokeWidth=1;" vertex="1" parent="1">
          <mxGeometry x="690" y="80" width="100" height="460" as="geometry" />
        </mxCell>
        <mxCell id="jcawZlttsGuWC--Ivyhk-4" value="" style="points=[];perimeter=orthogonalPerimeter;rounded=0;shadow=0;strokeWidth=1;" vertex="1" parent="jcawZlttsGuWC--Ivyhk-3">
          <mxGeometry x="45" y="290" width="10" height="20" as="geometry" />
        </mxCell>
        <mxCell id="jcawZlttsGuWC--Ivyhk-31" value="" style="points=[];perimeter=orthogonalPerimeter;rounded=0;shadow=0;strokeWidth=1;" vertex="1" parent="jcawZlttsGuWC--Ivyhk-3">
          <mxGeometry x="45" y="320" width="10" height="20" as="geometry" />
        </mxCell>
        <mxCell id="jcawZlttsGuWC--Ivyhk-34" value="Отдать заказ" style="verticalAlign=bottom;endArrow=block;shadow=0;strokeWidth=1;fontSize=7;entryX=-0.071;entryY=0.037;entryDx=0;entryDy=0;entryPerimeter=0;" edge="1" parent="jcawZlttsGuWC--Ivyhk-3" target="jcawZlttsGuWC--Ivyhk-31">
          <mxGeometry x="0.0036" relative="1" as="geometry">
            <mxPoint x="-90" y="320.00000000000017" as="sourcePoint" />
            <mxPoint x="40" y="320" as="targetPoint" />
            <mxPoint as="offset" />
            <Array as="points">
              <mxPoint x="-20" y="320" />
            </Array>
          </mxGeometry>
        </mxCell>
        <mxCell id="jcawZlttsGuWC--Ivyhk-48" value="" style="points=[];perimeter=orthogonalPerimeter;rounded=0;shadow=0;strokeWidth=1;" vertex="1" parent="jcawZlttsGuWC--Ivyhk-3">
          <mxGeometry x="45" y="370" width="10" height="20" as="geometry" />
        </mxCell>
        <mxCell id="jcawZlttsGuWC--Ivyhk-6" value="Вывел заказ на экран" style="verticalAlign=bottom;endArrow=open;dashed=1;endSize=8;exitX=0;exitY=0.95;shadow=0;strokeWidth=1;fontSize=8;" edge="1" parent="1">
          <mxGeometry relative="1" as="geometry">
            <mxPoint x="180" y="190" as="targetPoint" />
            <mxPoint x="340" y="189.99999999999977" as="sourcePoint" />
            <mxPoint as="offset" />
          </mxGeometry>
        </mxCell>
        <mxCell id="jcawZlttsGuWC--Ivyhk-8" value="Нажал оплатить" style="verticalAlign=bottom;endArrow=block;shadow=0;strokeWidth=1;fontSize=7;entryX=-0.189;entryY=0.375;entryDx=0;entryDy=0;entryPerimeter=0;" edge="1" parent="1" target="3nuBFxr9cyL0pnOWT2aG-6">
          <mxGeometry relative="1" as="geometry">
            <mxPoint x="180" y="220.0000000000001" as="sourcePoint" />
            <mxPoint x="340" y="220" as="targetPoint" />
          </mxGeometry>
        </mxCell>
        <mxCell id="jcawZlttsGuWC--Ivyhk-10" value="Сервер" style="shape=umlLifeline;perimeter=lifelinePerimeter;container=1;collapsible=0;recursiveResize=0;rounded=0;shadow=0;strokeWidth=1;" vertex="1" parent="1">
          <mxGeometry x="425" y="80" width="100" height="400" as="geometry" />
        </mxCell>
        <mxCell id="jcawZlttsGuWC--Ivyhk-11" value="" style="points=[];perimeter=orthogonalPerimeter;rounded=0;shadow=0;strokeWidth=1;" vertex="1" parent="jcawZlttsGuWC--Ivyhk-10">
          <mxGeometry x="45" y="90" width="10" height="10" as="geometry" />
        </mxCell>
        <mxCell id="jcawZlttsGuWC--Ivyhk-16" value="Узнать стоимость товара" style="verticalAlign=bottom;endArrow=block;shadow=0;strokeWidth=1;fontSize=7;" edge="1" parent="jcawZlttsGuWC--Ivyhk-10">
          <mxGeometry x="-0.0435" relative="1" as="geometry">
            <mxPoint x="-70" y="149.80000000000013" as="sourcePoint" />
            <mxPoint x="45" y="150" as="targetPoint" />
            <mxPoint as="offset" />
          </mxGeometry>
        </mxCell>
        <mxCell id="jcawZlttsGuWC--Ivyhk-17" value="" style="points=[];perimeter=orthogonalPerimeter;rounded=0;shadow=0;strokeWidth=1;" vertex="1" parent="jcawZlttsGuWC--Ivyhk-10">
          <mxGeometry x="45" y="150" width="10" height="20" as="geometry" />
        </mxCell>
        <mxCell id="jcawZlttsGuWC--Ivyhk-18" value="Сообщить общую стоимость" style="verticalAlign=bottom;endArrow=open;dashed=1;endSize=8;exitX=0;exitY=0.95;shadow=0;strokeWidth=1;fontSize=6;entryX=0.953;entryY=0.562;entryDx=0;entryDy=0;entryPerimeter=0;" edge="1" parent="jcawZlttsGuWC--Ivyhk-10" target="3nuBFxr9cyL0pnOWT2aG-6">
          <mxGeometry relative="1" as="geometry">
            <mxPoint x="-65" y="170" as="targetPoint" />
            <mxPoint x="45" y="169.99999999999977" as="sourcePoint" />
            <Array as="points">
              <mxPoint x="-35" y="170" />
            </Array>
          </mxGeometry>
        </mxCell>
        <mxCell id="jcawZlttsGuWC--Ivyhk-21" value="" style="points=[];perimeter=orthogonalPerimeter;rounded=0;shadow=0;strokeWidth=1;" vertex="1" parent="jcawZlttsGuWC--Ivyhk-10">
          <mxGeometry x="45" y="210" width="10" height="20" as="geometry" />
        </mxCell>
        <mxCell id="jcawZlttsGuWC--Ivyhk-25" value="" style="points=[];perimeter=orthogonalPerimeter;rounded=0;shadow=0;strokeWidth=1;" vertex="1" parent="jcawZlttsGuWC--Ivyhk-10">
          <mxGeometry x="45" y="240" width="10" height="110" as="geometry" />
        </mxCell>
        <mxCell id="jcawZlttsGuWC--Ivyhk-52" value="Отправить оценку" style="verticalAlign=bottom;endArrow=block;shadow=0;strokeWidth=1;fontSize=7;" edge="1" parent="jcawZlttsGuWC--Ivyhk-10">
          <mxGeometry relative="1" as="geometry">
            <mxPoint x="-65" y="400" as="sourcePoint" />
            <mxPoint x="45" y="400" as="targetPoint" />
          </mxGeometry>
        </mxCell>
        <mxCell id="jcawZlttsGuWC--Ivyhk-15" value="" style="shape=umlActor;verticalLabelPosition=bottom;verticalAlign=top;html=1;outlineConnect=0;fontSize=5;" vertex="1" parent="1">
          <mxGeometry x="155" y="30" width="25" height="50" as="geometry" />
        </mxCell>
        <mxCell id="jcawZlttsGuWC--Ivyhk-20" value="Произвёл оплату" style="verticalAlign=bottom;endArrow=block;shadow=0;strokeWidth=1;fontSize=7;entryX=-0.078;entryY=0.747;entryDx=0;entryDy=0;entryPerimeter=0;" edge="1" parent="1" target="3nuBFxr9cyL0pnOWT2aG-6">
          <mxGeometry relative="1" as="geometry">
            <mxPoint x="180" y="280.00000000000017" as="sourcePoint" />
            <mxPoint x="340" y="280" as="targetPoint" />
          </mxGeometry>
        </mxCell>
        <mxCell id="jcawZlttsGuWC--Ivyhk-22" value="Прошла ли оплата?" style="verticalAlign=bottom;endArrow=block;shadow=0;strokeWidth=1;fontSize=7;" edge="1" parent="1">
          <mxGeometry x="-0.0435" relative="1" as="geometry">
            <mxPoint x="355" y="289.83000000000015" as="sourcePoint" />
            <mxPoint x="470" y="290.03" as="targetPoint" />
            <mxPoint as="offset" />
          </mxGeometry>
        </mxCell>
        <mxCell id="jcawZlttsGuWC--Ivyhk-23" value="Прошла" style="verticalAlign=bottom;endArrow=open;dashed=1;endSize=8;exitX=-0.175;exitY=0.918;shadow=0;strokeWidth=1;fontSize=6;exitDx=0;exitDy=0;exitPerimeter=0;" edge="1" parent="1" source="jcawZlttsGuWC--Ivyhk-21">
          <mxGeometry relative="1" as="geometry">
            <mxPoint x="360" y="308" as="targetPoint" />
            <mxPoint x="465.47" y="300.07999999999976" as="sourcePoint" />
            <Array as="points">
              <mxPoint x="385" y="308" />
            </Array>
          </mxGeometry>
        </mxCell>
        <mxCell id="jcawZlttsGuWC--Ivyhk-24" value="Вывести &quot;Оплата прошла успешно&quot;" style="verticalAlign=bottom;endArrow=open;dashed=1;endSize=8;shadow=0;strokeWidth=1;fontSize=6;exitX=0.011;exitY=0.938;exitDx=0;exitDy=0;exitPerimeter=0;" edge="1" parent="1" source="3nuBFxr9cyL0pnOWT2aG-6">
          <mxGeometry relative="1" as="geometry">
            <mxPoint x="180" y="310" as="targetPoint" />
            <mxPoint x="340" y="310" as="sourcePoint" />
            <Array as="points">
              <mxPoint x="260" y="310" />
            </Array>
          </mxGeometry>
        </mxCell>
        <mxCell id="jcawZlttsGuWC--Ivyhk-51" value="Оставить оценку" style="verticalAlign=bottom;endArrow=block;shadow=0;strokeWidth=1;fontSize=7;" edge="1" parent="1">
          <mxGeometry relative="1" as="geometry">
            <mxPoint x="180" y="472" as="sourcePoint" />
            <mxPoint x="340" y="472" as="targetPoint" />
          </mxGeometry>
        </mxCell>
        <mxCell id="jcawZlttsGuWC--Ivyhk-53" value="" style="points=[];perimeter=orthogonalPerimeter;rounded=0;shadow=0;strokeWidth=1;" vertex="1" parent="1">
          <mxGeometry x="470" y="480" width="10" height="10" as="geometry" />
        </mxCell>
      </root>
    </mxGraphModel>
  </diagram>
</mxfile>
